<svg width="12" height="12" viewBox="0 0 12 12" fill="none" xmlns="http://www.w3.org/2000/svg">
<path d="M10.5 2.25H1.5C1.40054 2.25 1.30516 2.28951 1.23483 2.35984C1.16451 2.43016 1.125 2.52554 1.125 2.625V9C1.125 9.19891 1.20402 9.38968 1.34467 9.53033C1.48532 9.67098 1.67609 9.75 1.875 9.75H10.125C10.3239 9.75 10.5147 9.67098 10.6553 9.53033C10.796 9.38968 10.875 9.19891 10.875 9V2.625C10.875 2.52554 10.8355 2.43016 10.7652 2.35984C10.6948 2.28951 10.5995 2.25 10.5 2.25ZM9.53578 3L6 6.24141L2.46422 3H9.53578ZM10.125 9H1.875V3.47766L5.74641 7.02656C5.81559 7.09007 5.90609 7.12531 6 7.12531C6.09391 7.12531 6.18441 7.09007 6.25359 7.02656L10.125 3.47766V9Z" fill="white"/>
</svg>
