<svg width="46" height="46" viewBox="0 0 46 46" fill="none" xmlns="http://www.w3.org/2000/svg">
<path d="M24.739 3.83537C26.0876 3.83 27.4361 3.84406 28.7843 3.87753L29.1428 3.89095C29.5567 3.90628 29.9652 3.92545 30.4586 3.94845C32.4248 4.04428 33.7664 4.36628 34.9436 4.8397C36.1633 5.32653 37.1907 5.98587 38.2182 7.05153C39.1576 8.00911 39.8848 9.16744 40.3489 10.4459C40.8053 11.6669 41.1158 13.0603 41.2083 15.0996C41.2304 15.6094 41.2488 16.0349 41.2637 16.4643L41.2748 16.8361C41.3075 18.2338 41.3218 19.6318 41.3172 21.0298L41.3191 22.4596V24.9704C41.3237 26.3691 41.3094 27.7678 41.2766 29.1661L41.2655 29.5379C41.2507 29.9672 41.2322 30.3908 41.21 30.9026C41.1177 32.9419 40.8036 34.3334 40.3489 35.5543C39.8863 36.8341 39.159 37.9934 38.2182 38.9506C37.2941 39.9249 36.1768 40.679 34.9436 41.1606C33.7664 41.6339 32.4248 41.9559 30.4586 42.0518C29.9652 42.0748 29.5567 42.0939 29.1428 42.1093L28.7843 42.1208C27.4361 42.1548 26.0876 42.1696 24.739 42.1649L23.3604 42.1668H20.9414C19.5928 42.1715 18.2444 42.1568 16.8962 42.1227L16.5377 42.1112C16.099 42.0947 15.6604 42.0755 15.2219 42.0537C13.2557 41.9579 11.9141 41.6321 10.735 41.1606C9.50186 40.6801 8.38486 39.9259 7.46229 38.9506C6.52175 37.9929 5.79397 36.8337 5.32971 35.5543C4.87327 34.3334 4.56281 32.9419 4.4704 30.9026C4.44983 30.4477 4.43134 29.9928 4.41496 29.5379L4.40573 29.1661C4.37166 27.7678 4.35626 26.3691 4.35952 24.9704V21.0298C4.35437 19.6318 4.36793 18.2338 4.40018 16.8361L4.41312 16.4643C4.4279 16.0349 4.44639 15.6094 4.46856 15.0996C4.56096 13.0584 4.87142 11.6688 5.32787 10.4459C5.7924 9.16681 6.5216 8.0088 7.46413 7.05345C8.38607 6.07739 9.50238 5.32188 10.735 4.8397C11.9141 4.36628 13.2538 4.04428 15.2219 3.94845L16.5377 3.89095L16.8962 3.88137C18.2438 3.84605 19.5917 3.83008 20.9396 3.83345L24.739 3.83537ZM22.8393 13.4187C21.615 13.4008 20.3995 13.6353 19.2635 14.1088C18.1273 14.5824 17.0933 15.2853 16.2214 16.1768C15.3496 17.0685 14.6572 18.1309 14.1846 19.3024C13.7121 20.4739 13.4688 21.7312 13.4688 23.001C13.4688 24.271 13.7121 25.5282 14.1846 26.6997C14.6572 27.8713 15.3496 28.9337 16.2214 29.8253C17.0933 30.7169 18.1273 31.4198 19.2635 31.8933C20.3995 32.3669 21.615 32.6015 22.8393 32.5834C25.2899 32.5834 27.6401 31.5738 29.3728 29.7765C31.1057 27.9794 32.0792 25.5418 32.0792 23.0001C32.0792 20.4585 31.1057 18.0209 29.3728 16.2236C27.6401 14.4265 25.2899 13.4187 22.8393 13.4187ZM22.8393 17.2521C23.5758 17.238 24.3074 17.3762 24.9919 17.6588C25.6762 17.9413 26.2994 18.3625 26.825 18.8976C27.3507 19.4328 27.7682 20.0712 28.0533 20.7755C28.3384 21.4799 28.4853 22.2362 28.4854 23.0001C28.4856 23.7641 28.3389 24.5204 28.054 25.2249C27.7691 25.9294 27.3518 26.5679 26.8263 27.1031C26.3009 27.6386 25.6778 28.0599 24.9935 28.3427C24.3093 28.6255 23.5775 28.764 22.8412 28.7501C21.3708 28.7501 19.9607 28.1443 18.921 27.066C17.8813 25.9876 17.2973 24.5251 17.2973 23.0001C17.2973 21.4751 17.8813 20.0126 18.921 18.9342C19.9607 17.856 21.3708 17.2501 22.8412 17.2501L22.8393 17.2521ZM32.5412 10.5437C31.945 10.5684 31.3813 10.8315 30.9679 11.2777C30.5545 11.724 30.3236 12.3188 30.3236 12.9376C30.3236 13.5564 30.5545 14.1513 30.9679 14.5976C31.3813 15.0437 31.945 15.3068 32.5412 15.3316C33.1538 15.3316 33.7413 15.0791 34.1746 14.6298C34.6078 14.1805 34.8511 13.5712 34.8511 12.9357C34.8511 12.3003 34.6078 11.6909 34.1746 11.2416C33.7413 10.7923 33.1538 10.5399 32.5412 10.5399V10.5437Z" fill="#232323"/>
</svg>
