<svg width="38" height="38" viewBox="0 0 38 38" fill="none" xmlns="http://www.w3.org/2000/svg">
<path d="M19.5919 6.3335C20.4071 6.33825 22.4467 6.35883 24.6144 6.44908L25.3838 6.48391C27.5653 6.59 29.7453 6.77366 30.8277 7.08558C32.2703 7.50675 33.403 8.73225 33.7862 10.2871C34.3968 12.7571 34.4732 17.5736 34.4823 18.7405L34.4838 18.9812V19.2567C34.4732 20.4236 34.3968 25.2417 33.7862 27.7101C33.3984 29.2697 32.2642 30.4967 30.8277 30.9116C29.7453 31.2235 27.5653 31.4072 25.3838 31.5132L24.6144 31.5497C22.4467 31.6383 20.4071 31.6605 19.5919 31.6637L19.2332 31.6652H18.8439C17.1189 31.6542 9.9042 31.5734 7.60821 30.9116C6.16711 30.4904 5.03285 29.2649 4.64968 27.7101C4.03904 25.2401 3.96271 20.4236 3.95355 19.2567V18.7405C3.96271 17.5736 4.03904 12.7555 4.64968 10.2871C5.03743 8.7275 6.17169 7.50041 7.60974 7.08716C9.9042 6.42375 17.1204 6.343 18.8454 6.3335H19.5919ZM16.1648 13.4585V24.5418L25.3243 19.0002L16.1648 13.4585Z" fill="#232323"/>
</svg>
