<svg width="10" height="13" viewBox="0 0 10 13" fill="none" xmlns="http://www.w3.org/2000/svg">
<path fill-rule="evenodd" clip-rule="evenodd" d="M5 6.05572C4.30958 6.05572 3.75 5.51353 3.75 4.84457C3.75 4.17562 4.30958 3.63343 5 3.63343C5.69042 3.63343 6.25 4.17562 6.25 4.84457C6.25 5.51353 5.69042 6.05572 5 6.05572ZM5 2.826C3.84958 2.826 2.91667 3.72951 2.91667 4.84457C2.91667 5.95963 3.84958 6.86315 5 6.86315C6.15042 6.86315 7.08333 5.95963 7.08333 4.84457C7.08333 3.72951 6.15042 2.826 5 2.826ZM5 11.7077C4.30708 11.7114 0.833333 6.53251 0.833333 4.84457C0.833333 2.61526 2.69875 0.807429 5 0.807429C7.30125 0.807429 9.16667 2.61526 9.16667 4.84457C9.16667 6.5099 5.68208 11.7114 5 11.7077ZM5 0C2.23875 0 0 2.16916 0 4.84457C0 6.87041 4.16875 12.9233 5 12.9189C5.81833 12.9233 10 6.84296 10 4.84457C10 2.16916 7.76125 0 5 0Z" fill="white"/>
</svg>
