<svg width="12" height="12" viewBox="0 0 12 12" fill="none" xmlns="http://www.w3.org/2000/svg">
<path fill-rule="evenodd" clip-rule="evenodd" d="M9.03673 11.8789C7.87157 11.5888 5.48629 10.7709 3.32385 8.62199C1.16143 6.47307 0.33845 4.10267 0.0465235 2.94479C-0.121239 2.27938 0.180862 1.63727 0.693108 1.27367L2.036 0.320441C2.82174 -0.237294 3.9148 -0.0480347 4.46443 0.740916L5.30985 1.95449C5.66872 2.46963 5.54495 3.17567 5.0319 3.53984L4.35778 4.01836C4.45981 4.40618 4.77713 5.20262 5.77093 6.19021C6.76473 7.1778 7.56616 7.49311 7.95641 7.5945L8.43791 6.92457C8.8044 6.41478 9.51488 6.29172 10.0332 6.64835L11.2545 7.48852C12.0483 8.03476 12.2388 9.12094 11.6775 9.90179L10.7183 11.2363C10.3524 11.7454 9.70631 12.0456 9.03673 11.8789ZM4.13954 7.8114C6.10604 9.7656 8.27612 10.5077 9.31704 10.7669C9.4692 10.8047 9.65314 10.746 9.77962 10.57L10.7389 9.23547C10.9259 8.97524 10.8625 8.61316 10.5978 8.43106L9.37663 7.59089L8.85989 8.30983C8.64873 8.60365 8.25819 8.83407 7.80345 8.73657C7.2359 8.61488 6.18673 8.2246 4.95525 7.0008C3.72376 5.777 3.33102 4.73438 3.20856 4.17037C3.11045 3.71848 3.34234 3.33038 3.63798 3.12052L4.36141 2.60701L3.51597 1.39344C3.33276 1.13045 2.96841 1.06737 2.7065 1.25328L1.36361 2.2065C1.18651 2.33221 1.12738 2.51499 1.1655 2.66619C1.42631 3.70064 2.17307 5.85719 4.13954 7.8114Z" fill="white"/>
</svg>
